<svg width="1976" height="1810" viewBox="0 0 1976 1810" fill="none" xmlns="http://www.w3.org/2000/svg">
<ellipse cx="987.741" cy="1731.7" rx="987.5" ry="36.5" fill="#E8E8E8"/>
<rect x="218" y="13" width="1486" height="715" fill="#424242" stroke="#996533" stroke-width="26"/>
<path d="M1108 81L778 91L772 537H1094L1108 81Z" stroke="#F5F5F5" stroke-width="5"/>
<path d="M1107 115L777 123" stroke="#F5F5F5" stroke-width="4"/>
<path d="M792.5 116L793.5 99L831 97V115L792.5 116Z" stroke="#F5F5F5" stroke-width="2"/>
<line x1="831.388" y1="98.9216" x2="793.388" y2="114.922" stroke="#F5F5F5" stroke-width="2"/>
<line x1="830.633" y1="114.93" x2="792.633" y2="99.9302" stroke="#F5F5F5" stroke-width="2"/>
<path d="M1069 100L1087.5 99M1040 101L1058.5 100M1008 101L1026.5 100M976 101L994.5 100" stroke="#F5F5F5" stroke-width="6"/>
<line x1="885" y1="159" x2="992" y2="159" stroke="#F5F5F5" stroke-width="10"/>
<line x1="975" y1="414" x2="1059" y2="414" stroke="#F5F5F5" stroke-width="10"/>
<line x1="799" y1="361" x2="906" y2="361" stroke="#F5F5F5" stroke-width="10"/>
<path d="M801 202H883.979L883.262 269H801V202Z" stroke="#F5F5F5" stroke-width="4"/>
<line y1="-2" x2="107.303" y2="-2" transform="matrix(-0.783038 0.621974 -0.14247 -0.989799 884.534 200.71)" stroke="#F5F5F5" stroke-width="4"/>
<line y1="-2" x2="109.134" y2="-2" transform="matrix(0.780982 0.624554 -0.143418 0.989662 799.303 202.84)" stroke="#F5F5F5" stroke-width="4"/>
<path d="M801 391H930.978L929.852 496H801V391Z" stroke="#F5F5F5" stroke-width="4"/>
<line y1="-2" x2="165.272" y2="-2" transform="matrix(-0.783038 0.621974 -0.14247 -0.989799 930.742 390.094)" stroke="#F5F5F5" stroke-width="4"/>
<line y1="-2" x2="168.091" y2="-2" transform="matrix(0.780982 0.624554 -0.143418 0.989662 799.467 393.374)" stroke="#F5F5F5" stroke-width="4"/>
<path d="M895 202H977.979L977.262 269H895V202Z" stroke="#F5F5F5" stroke-width="4"/>
<line y1="-2" x2="107.303" y2="-2" transform="matrix(-0.783038 0.621974 -0.14247 -0.989799 978.689 200.71)" stroke="#F5F5F5" stroke-width="4"/>
<line y1="-2" x2="109.134" y2="-2" transform="matrix(0.780982 0.624554 -0.143418 0.989662 893.457 202.84)" stroke="#F5F5F5" stroke-width="4"/>
<path d="M989 203H1071.98L1071.26 270H989V203Z" stroke="#F5F5F5" stroke-width="4"/>
<line y1="-2" x2="107.303" y2="-2" transform="matrix(-0.783038 0.621974 -0.14247 -0.989799 1072.94 201.71)" stroke="#F5F5F5" stroke-width="4"/>
<line y1="-2" x2="109.134" y2="-2" transform="matrix(0.780982 0.624554 -0.143418 0.989662 987.711 203.84)" stroke="#F5F5F5" stroke-width="4"/>
<line x1="799" y1="291" x2="885" y2="291" stroke="#F5F5F5" stroke-width="4"/>
<line x1="799" y1="300" x2="880" y2="300" stroke="#F5F5F5" stroke-width="4"/>
<line x1="799" y1="309" x2="857" y2="309" stroke="#F5F5F5" stroke-width="4"/>
<line x1="897" y1="291" x2="979" y2="291" stroke="#F5F5F5" stroke-width="4"/>
<line x1="897" y1="300" x2="968" y2="300" stroke="#F5F5F5" stroke-width="4"/>
<line x1="897" y1="309" x2="976" y2="309" stroke="#F5F5F5" stroke-width="4"/>
<line x1="976" y1="439" x2="1058" y2="439" stroke="#F5F5F5" stroke-width="4"/>
<line x1="976" y1="448" x2="1047" y2="448" stroke="#F5F5F5" stroke-width="4"/>
<line x1="976" y1="457" x2="1055" y2="457" stroke="#F5F5F5" stroke-width="4"/>
<line x1="992" y1="291" x2="1062" y2="291" stroke="#F5F5F5" stroke-width="4"/>
<line x1="992" y1="300" x2="1073" y2="300" stroke="#F5F5F5" stroke-width="4"/>
<line x1="992" y1="309" x2="1059" y2="309" stroke="#F5F5F5" stroke-width="4"/>
<line x1="353" y1="466" x2="600" y2="466" stroke="#F5F5F5" stroke-width="4"/>
<line x1="353" y1="482" x2="600" y2="482" stroke="#F5F5F5" stroke-width="4"/>
<line x1="353" y1="498" x2="600" y2="498" stroke="#F5F5F5" stroke-width="4"/>
<line x1="370" y1="429" x2="418" y2="429" stroke="#F5F5F5" stroke-width="6"/>
<path d="M644 97L314 107L308 553H630L644 97Z" stroke="#F5F5F5" stroke-width="5"/>
<path d="M643 131L313 139" stroke="#F5F5F5" stroke-width="4"/>
<path d="M328.5 132L329.5 115L367 113V131L328.5 132Z" stroke="#F5F5F5" stroke-width="2"/>
<line x1="367.388" y1="114.922" x2="329.388" y2="130.922" stroke="#F5F5F5" stroke-width="2"/>
<line x1="366.633" y1="130.93" x2="328.633" y2="115.93" stroke="#F5F5F5" stroke-width="2"/>
<line x1="336" y1="167" x2="406" y2="167" stroke="#F5F5F5" stroke-width="10"/>
<line x1="434" y1="347" x2="504" y2="347" stroke="#F5F5F5" stroke-width="10"/>
<line x1="520" y1="429" x2="568" y2="429" stroke="#F5F5F5" stroke-width="6"/>
<path d="M605 116L623.5 115M576 117L594.5 116M544 117L562.5 116M512 117L530.5 116" stroke="#F5F5F5" stroke-width="6"/>
<line x1="445" y1="429" x2="493" y2="429" stroke="#F5F5F5" stroke-width="6"/>
<line x1="336" y1="188" x2="443" y2="188" stroke="#F5F5F5" stroke-width="10"/>
<path d="M337 218H619.449L617.049 314H337V218Z" stroke="#F5F5F5" stroke-width="4"/>
<line x1="618.641" y1="218.895" x2="340.641" y2="312.895" stroke="#F5F5F5" stroke-width="4"/>
<line x1="336.645" y1="218.107" x2="618.645" y2="314.107" stroke="#F5F5F5" stroke-width="4"/>
<ellipse cx="394" cy="395" rx="14" ry="15" fill="#F5F5F5"/>
<ellipse cx="469" cy="395" rx="14" ry="15" fill="#F5F5F5"/>
<ellipse cx="544" cy="395" rx="14" ry="15" fill="#F5F5F5"/>
<line x1="1280" y1="414" x2="1529" y2="414" stroke="#F5F5F5" stroke-width="10"/>
<line x1="1283" y1="439" x2="1526" y2="439" stroke="#F5F5F5" stroke-width="4"/>
<line x1="1283" y1="448" x2="1493" y2="448" stroke="#F5F5F5" stroke-width="4"/>
<line x1="1283" y1="457" x2="1517" y2="457" stroke="#F5F5F5" stroke-width="4"/>
<path d="M1283 203H1385.99L1385.08 326H1283V203Z" stroke="#F5F5F5" stroke-width="4"/>
<path d="M1572 89L1242 99L1236 545H1558L1572 89Z" stroke="#F5F5F5" stroke-width="5"/>
<path d="M1571 123L1241 131" stroke="#F5F5F5" stroke-width="4"/>
<path d="M1256.5 124L1257.5 107L1295 105V123L1256.5 124Z" stroke="#F5F5F5" stroke-width="2"/>
<line x1="1295.39" y1="106.922" x2="1257.39" y2="122.922" stroke="#F5F5F5" stroke-width="2"/>
<line x1="1294.63" y1="122.93" x2="1256.63" y2="107.93" stroke="#F5F5F5" stroke-width="2"/>
<path d="M1533 108L1551.5 107M1504 109L1522.5 108M1472 109L1490.5 108M1440 109L1458.5 108" stroke="#F5F5F5" stroke-width="6"/>
<line x1="1355" y1="159" x2="1462" y2="159" stroke="#F5F5F5" stroke-width="10"/>
<line x1="1295" y1="287" x2="1374" y2="287" stroke="#F5F5F5" stroke-width="4"/>
<line x1="1295" y1="297" x2="1374" y2="297" stroke="#F5F5F5" stroke-width="4"/>
<line x1="1295" y1="308" x2="1374" y2="308" stroke="#F5F5F5" stroke-width="4"/>
<line x1="1310" y1="268" x2="1358" y2="268" stroke="#F5F5F5" stroke-width="6"/>
<ellipse cx="1334" cy="234" rx="14" ry="15" fill="#F5F5F5"/>
<path d="M1431 203H1533.99L1533.08 326H1431V203Z" stroke="#F5F5F5" stroke-width="4"/>
<line x1="1443" y1="287" x2="1522" y2="287" stroke="#F5F5F5" stroke-width="4"/>
<line x1="1443" y1="297" x2="1522" y2="297" stroke="#F5F5F5" stroke-width="4"/>
<line x1="1443" y1="308" x2="1522" y2="308" stroke="#F5F5F5" stroke-width="4"/>
<line x1="1458" y1="268" x2="1506" y2="268" stroke="#F5F5F5" stroke-width="6"/>
<ellipse cx="1482" cy="234" rx="14" ry="15" fill="#F5F5F5"/>
<rect x="1079" y="329" width="77" height="77" fill="#F9BE00"/>
<rect x="1079" y="329" width="77" height="13" fill="white" fill-opacity="0.2"/>
<path d="M1089 385C1093.92 382.709 1104.87 378.973 1109.34 382.356C1113.82 385.74 1127.15 383.766 1133.25 382.356C1136.81 382.18 1144.74 382.462 1148 385" stroke="black" stroke-width="2"/>
<path d="M1089 374C1092.58 371.709 1100.57 367.973 1103.83 371.356C1107.09 374.74 1116.8 372.766 1121.25 371.356C1123.84 371.18 1129.63 371.462 1132 374" stroke="black" stroke-width="2"/>
<path d="M1089 362C1093.42 359.709 1103.26 355.973 1107.28 359.356C1111.3 362.74 1123.27 360.766 1128.75 359.356C1131.95 359.18 1139.08 359.462 1142 362" stroke="black" stroke-width="2"/>
<rect x="605" y="530" width="77" height="77" fill="#F9BE00"/>
<rect x="605" y="530" width="77" height="13" fill="white" fill-opacity="0.2"/>
<path d="M615 586C619.917 583.709 630.869 579.973 635.345 583.356C639.821 586.74 653.147 584.766 659.25 583.356C662.81 583.18 670.745 583.462 674 586" stroke="black" stroke-width="2"/>
<path d="M615 575C618.583 572.709 626.566 568.973 629.828 572.356C633.09 575.74 642.802 573.766 647.25 572.356C649.845 572.18 655.628 572.462 658 575" stroke="black" stroke-width="2"/>
<path d="M615 563C619.417 560.709 629.255 556.973 633.276 560.356C637.297 563.74 649.267 561.766 654.75 560.356C657.948 560.18 665.076 560.462 668 563" stroke="black" stroke-width="2"/>
<rect x="1393.24" y="1579.2" width="70" height="85" fill="#E51062"/>
<rect x="1287.24" y="1541.2" width="70" height="123" fill="#BD0F52"/>
<path d="M1246.24 1007.2H1386.24L1364.24 1592.52C1364.24 1592.52 1349.24 1611.55 1332.24 1616.15C1315.24 1620.75 1278.24 1608.81 1278.24 1608.81L1246.24 1007.2Z" fill="#6B2AD4"/>
<path d="M1366.24 1095.2H1520.24L1469.24 1613.5C1469.24 1613.5 1448.74 1622.47 1426.24 1626.62C1403.74 1630.77 1387.24 1611.3 1387.24 1611.3L1366.24 1095.2Z" fill="#823AF7"/>
<path d="M1520.24 1090.2H1366.24L1377.74 1385.2C1377.74 1385.2 1412.41 1399.2 1445.24 1393.2C1478.07 1387.2 1491.74 1382.7 1491.74 1382.7L1520.24 1090.2Z" fill="#7332DD"/>
<path d="M1386.24 992.205H1246.24L1265.74 1371.7C1265.74 1371.7 1274.74 1382.7 1315.24 1376.7C1355.74 1370.7 1371.66 1380.2 1371.66 1380.2L1386.24 992.205Z" fill="#5C26B5"/>
<path d="M1546.27 935.205H1254.66C1254.66 935.205 1238.23 993.416 1227.69 1143.54C1217.15 1293.67 1222.7 1310.52 1222.7 1310.52C1222.7 1310.52 1350.53 1310.52 1382.49 1322.77C1414.44 1335.03 1566.24 1310.52 1566.24 1310.52C1566.24 1310.52 1551.76 1234.69 1556.25 1122.86C1560.75 1011.03 1546.27 935.205 1546.27 935.205Z" fill="white"/>
<path d="M1356.74 1636.7L1374.74 1656.7C1374.74 1656.7 1377.24 1669.2 1377.24 1684.2C1377.24 1699.2 1374.74 1718.7 1374.74 1718.7L1169.13 1720.6L1169.13 1704.72C1170.24 1695.78 1181.67 1685.62 1187.26 1681.66L1286.74 1638.7C1298.24 1656.7 1343.55 1666.66 1356.74 1636.7Z" fill="#282828"/>
<path d="M1219.24 1668.2C1180.67 1668.2 1169.84 1693.73 1169.24 1707.2H1219.24V1668.2Z" fill="#DBDBDB"/>
<rect x="1164.24" y="1703.2" width="216" height="15" rx="7.5" fill="#DBDBDB"/>
<rect x="1164.24" y="1706.2" width="216" height="15" rx="7.5" fill="#DBDBDB"/>
<path d="M1287.24 1661.36C1288.48 1660.64 1290 1660.64 1291.24 1661.36L1301.1 1667.05C1302.33 1667.76 1303.1 1669.08 1303.1 1670.51V1681.9C1303.1 1683.32 1302.33 1684.64 1301.1 1685.36L1291.24 1691.05C1290 1691.76 1288.48 1691.76 1287.24 1691.05L1277.38 1685.36C1276.15 1684.64 1275.38 1683.32 1275.38 1681.9V1670.51C1275.38 1669.08 1276.15 1667.76 1277.38 1667.05L1287.24 1661.36Z" fill="#DBDBDB"/>
<rect x="1164.24" y="1714.2" width="216" height="7" fill="#282828"/>
<path d="M1462.74 1644.7L1480.74 1664.7C1480.74 1664.7 1483.24 1677.2 1483.24 1692.2C1483.24 1707.2 1480.74 1726.7 1480.74 1726.7L1275.13 1728.6L1275.13 1712.72C1276.23 1703.78 1287.67 1693.62 1293.25 1689.66L1392.74 1646.7C1404.24 1664.7 1449.55 1674.66 1462.74 1644.7Z" fill="#282828"/>
<path d="M1325.24 1676.2C1286.67 1676.2 1275.83 1701.73 1275.24 1715.2H1325.24V1676.2Z" fill="white"/>
<rect x="1270.24" y="1711.2" width="216" height="15" rx="7.5" fill="white"/>
<rect x="1270.24" y="1714.2" width="216" height="15" rx="7.5" fill="white"/>
<path d="M1393.24 1669.36C1394.48 1668.64 1396 1668.64 1397.24 1669.36L1407.1 1675.05C1408.33 1675.76 1409.1 1677.08 1409.1 1678.51V1689.9C1409.1 1691.32 1408.33 1692.64 1407.1 1693.36L1397.24 1699.05C1396 1699.76 1394.48 1699.76 1393.24 1699.05L1383.38 1693.36C1382.15 1692.64 1381.38 1691.32 1381.38 1689.9V1678.51C1381.38 1677.08 1382.15 1675.76 1383.38 1675.05L1393.24 1669.36Z" fill="white"/>
<rect x="1270.24" y="1722.2" width="216" height="7" fill="#282828"/>
<path d="M1616.24 620.205L1490.74 581.705C1446.41 584.371 1356.64 569.205 1342.24 569.205C1300.64 574.005 1232.57 654.538 1203.24 700.205L1194.24 810.205L1203.24 909.205H1256.24H1361.24C1361.24 909.205 1568.74 919.205 1600.74 909.205C1623.65 902.046 1631.36 898.705 1632.24 866.205C1633.91 804.538 1632.24 679.405 1632.24 660.205C1632.24 641.005 1620.57 624.538 1616.24 620.205Z" fill="white"/>
<path d="M1404.24 669.205L1490.24 581.705L1388.24 730.205V646.705L1404.24 595.205V669.205Z" fill="#F8534E"/>
<path d="M1388.24 647.205L1403.74 632.205V597.205L1388.24 647.205Z" fill="#E04742"/>
<path d="M1337.24 385.205C1361.24 390.005 1366.24 412.871 1366.24 424.205C1366.24 424.205 1391.74 429.205 1404.74 429.205C1417.74 429.205 1440.24 424.205 1440.24 424.205L1461.24 459.205L1447.74 503.205L1461.24 515.205L1490.24 503.205C1546.24 369.605 1513.57 360.871 1490.24 373.205C1419.24 278.205 1307.24 379.205 1337.24 385.205Z" fill="#F8534E"/>
<path d="M1461.24 459.205L1440.24 424.205C1440.24 424.205 1416.24 429.205 1404.24 429.205C1392.24 429.205 1366.24 424.205 1366.24 424.205C1366.24 424.205 1358 451 1362.5 469.5C1367 488 1366.24 564.205 1366.24 564.205C1370.51 576.58 1382.59 593.6 1403.74 595.854L1404.24 669.205L1490.24 582.205V540.205C1501.44 531.405 1500.41 516.371 1497.74 511.705C1486.03 491.205 1469.57 505.871 1461.24 515.205L1448.24 503.205L1461.24 459.205Z" fill="#FDAF87"/>
<path d="M1449.24 580.205C1435.74 594.705 1415.07 596.538 1403.74 595.705L1404.24 631.705L1449.24 580.205Z" fill="#F19F75"/>
<path d="M1554.24 804.205L1361.74 819.705L1524.74 791.205L1529.24 698.205L1554.24 804.205Z" fill="#E8E8E8"/>
<path d="M1475.24 546.705C1485.24 545.705 1485.24 545.705 1490.24 540.205V553.705L1475.24 546.705Z" fill="#F19F75"/>
<path d="M1334.74 1003.7C1319.94 1245.3 1342.41 1314.7 1354.74 1317.2L1313.5 1313C1305.5 1303.4 1303 1079.5 1334.74 1003.7Z" fill="#5C26B5"/>
<path d="M1511.24 573.705L1497.24 574.205V587.705L1438.74 669.705L1385.24 735.205L1470.24 659.205V644.205L1488.74 640.205L1518.24 590.205L1511.24 573.705Z" fill="#E8E8E8"/>
<path d="M1511.24 573.205L1490.24 568.205V581.705L1431.74 663.705L1385.24 734.205L1463.24 653.205V638.205L1481.74 634.205L1511.24 588.205V573.205Z" fill="white"/>
<path d="M1335.24 1002.2C1329.64 1087.8 1354.74 1262.54 1368.74 1319.2C1359.74 1317.7 1340.74 1315.2 1340.74 1315.2C1340.74 1315.2 1309.24 1095.2 1335.24 1002.2Z" fill="#E8E8E8"/>
<path d="M313.241 1592.2H363.241L354.546 1687.2H321.937L313.241 1592.2Z" fill="#F9BE00"/>
<path d="M284.241 1172.2H376.241C376.241 1172.2 386.241 1348.73 386.241 1385.84C386.241 1422.95 358.241 1651.2 358.241 1651.2C358.241 1651.2 351.241 1658.09 339.241 1661.7C327.241 1665.32 317.741 1647.2 317.741 1647.2C317.741 1647.2 309.241 1551.7 300.241 1430.98C291.241 1310.25 284.241 1172.2 284.241 1172.2Z" fill="#2C6FBC"/>
<path d="M385.741 1365.7C370.141 1376.9 336.241 1379.37 321.241 1379.2V1324.2L383.241 1300.2L385.741 1365.7Z" fill="#2560A5"/>
<path d="M246.241 1615.2H295.241L286.241 1709.2H254.241L246.241 1615.2Z" fill="#F9BE00"/>
<path d="M305.267 1716.2C292.067 1702.92 307.808 1670.27 318.808 1659.2C323.461 1668.2 334.767 1686.2 342.767 1686.2C350.767 1686.2 355.351 1668.2 357.643 1659.2C367.267 1668.5 393.41 1687.91 420.753 1691.23C448.095 1694.55 439.981 1711.26 435.267 1716.2H305.267Z" fill="#E4433E"/>
<rect x="301.767" y="1710.2" width="137" height="9" fill="#CD3834"/>
<path d="M215.241 1174.2H310.849C310.849 1174.2 321.241 1357.07 321.241 1395.51C321.241 1433.95 289.241 1678.2 289.241 1678.2C289.241 1678.2 285.329 1688.44 269.741 1682.2C254.153 1675.97 251.241 1673.7 251.241 1673.7C251.241 1673.7 240.741 1563.7 231.869 1442.26C222.996 1320.82 215.241 1174.2 215.241 1174.2Z" fill="#3179CD"/>
<path d="M236.741 1735.2C223.541 1721.92 239.283 1689.27 250.283 1678.2C254.936 1687.2 266.241 1705.2 274.241 1705.2C282.241 1705.2 286.825 1687.2 289.117 1678.2C298.742 1687.5 324.885 1706.91 352.227 1710.23C379.57 1713.55 371.455 1730.26 366.741 1735.2H236.741Z" fill="#F8534E"/>
<path d="M321.241 1384.7C295.241 1399.9 248.408 1394.7 228.241 1390.2L221.741 1310.7L315.741 1306.2C318.541 1311.4 320.575 1360.7 321.241 1384.7Z" fill="#2C6FBC"/>
<rect x="233.241" y="1729.2" width="137" height="9" fill="#E34540"/>
<path d="M404.241 658.705C386.617 642.087 340.241 629.705 340.241 629.705L275.618 627.205C212.586 647.145 185.77 697.828 180.241 720.677V950.205H449.783C450.129 907.969 446.571 817.116 445.741 787.205C444.912 757.293 421.865 675.322 404.241 658.705Z" fill="white"/>
<path d="M374 640.5L355.5 634L343 661.5V757.5C355 731 361.5 700.833 364 680L359 673.5L365.5 665.5L374 640.5Z" fill="#E8E8E8"/>
<path d="M369 638.5L350.5 632L338 659.5L340.5 761C349.3 744.6 356.5 698.833 359 678L354 671.5L360.5 663.5L369 638.5Z" fill="white"/>
<path d="M369 638.5L350.5 632L338 659.5L340.5 761C349.3 744.6 356.5 698.833 359 678L354 671.5L360.5 663.5L369 638.5Z" fill="white"/>
<path d="M224.37 955.205H387.233C387.233 955.205 383.464 979.647 387.233 1024.7C389.271 1049.08 397.432 1080.32 391.241 1115.7C373.606 1216.49 415.241 1282.5 415.241 1282.5C415.241 1282.5 403.83 1307.44 318.768 1332.37C233.706 1357.31 165.241 1314.71 165.241 1314.71C165.241 1314.71 203.623 1180.68 195.325 1080.93C187.027 981.18 224.37 955.205 224.37 955.205Z" fill="white"/>
<path d="M233.241 852.205H328.241L247.856 839.743V771.205L233.241 852.205Z" fill="#E8E8E8"/>
<path d="M293.241 637.205C293.241 669.584 337.904 698.954 328.556 788.205C328.556 788.205 346.214 749.115 346.214 708.205V648.62L293.241 637.205Z" fill="#E51062"/>
<path d="M345.241 725.705L328.741 658.205C334.241 656.705 342.241 651.205 346.241 648.705L345.241 725.705Z" fill="#CE125A"/>
<path d="M268.032 674.428L244.207 645.491C251.452 640.037 271.509 634.077 286.021 630.192C329.957 722.883 328.396 748.205 329.241 786.705C328.888 770.629 296.541 724.794 286.108 699.909L292.568 681.354L268.032 674.428Z" fill="#E8E8E8"/>
<path d="M268.241 670.205L242.241 643.205C249.041 637.205 268.575 629.705 282.741 624.705C333.741 713.705 332.908 762.205 327.241 786.205C325.641 770.205 300.575 718.205 288.241 694.205L293.241 675.205L268.241 670.205Z" fill="white"/>
<path d="M336.236 1224.11C334.93 1165.5 345 1156.5 345 1156.5C346 1235.5 352.155 1270.73 345.241 1323.7C345.241 1323.7 337.241 1326.2 328.741 1329.2C320.241 1332.2 311.741 1334.2 311.741 1334.2C311.741 1334.2 337.543 1282.71 336.236 1224.11Z" fill="#E8E8E8"/>
<path d="M363.5 1317.5L331.241 1328.7C356.041 1294.3 336 1199.5 345.5 1156C353 1245 367.833 1275 363.5 1317.5Z" fill="#2560A5"/>
<path d="M413.242 493.998C409.865 537.432 393.862 625.01 356.864 627.856C354.097 628.069 351.454 628.061 348.931 627.856L345.853 648.758C345.853 648.758 322.068 668.77 303.129 655.873C284.19 642.977 298.284 609.623 298.284 609.623L306.653 565.597C325.68 551.366 312.085 489.254 321.187 468.205C326.825 492.397 352.313 490.144 364.352 485.993C391.483 472.474 408.25 485.697 413.242 493.998Z" fill="#FDAF87"/>
<path d="M316.242 588.205C322.485 614.892 338.985 624.08 349.242 627.58L346.12 648.58C346.12 648.58 342.944 650.955 338.093 653.83C333.242 656.705 328.742 658.205 328.742 658.205L316.242 588.205Z" fill="#F19F75"/>
<path d="M326.594 611.205C324.544 547.482 343.505 503.32 353.242 489.205C322.493 506.547 317.198 569.698 318.395 599.105L326.594 611.205Z" fill="#F19F75"/>
<path d="M283.169 435.063C329.44 393.275 415.917 435.235 415.227 494.71C415.472 506.328 412.568 514.766 410.049 519.607C396.791 518.777 356.88 502.663 353.083 488.486C295.08 554.876 343.762 614.524 302.331 661.205C271.776 638.037 161.468 544.971 283.169 435.063Z" fill="#B31283"/>
<rect x="130.241" y="950.205" width="1608" height="42" fill="#CFCFCF" fill-opacity="0.3"/>
<rect x="130.241" y="909.205" width="1608" height="43" fill="#B31283"/>
<rect x="1450.24" y="934.205" width="820" height="40" transform="rotate(90 1450.24 934.205)" fill="#B31283"/>
<rect x="458.241" y="934.205" width="820" height="40" transform="rotate(90 458.241 934.205)" fill="#B31283"/>
</svg>
